<?xml version="1.0" encoding="utf-8"?>
<!-- Generator: Adobe Illustrator 17.0.0, SVG Export Plug-In . SVG Version: 6.00 Build 0)  -->
<!DOCTYPE svg PUBLIC "-//W3C//DTD SVG 1.1//EN" "http://www.w3.org/Graphics/SVG/1.1/DTD/svg11.dtd">
<svg version="1.1" xmlns="http://www.w3.org/2000/svg" xmlns:xlink="http://www.w3.org/1999/xlink" x="0px" y="0px" width="960px"
	 height="560px" viewBox="0 0 960 560" enable-background="new 0 0 960 560" xml:space="preserve">
<g id="Layer_6">
	<path d="M123.876,96.94c0,0-5,38.333,27.667,87.333c0,0,36.667,75,152,156.667c0,0,145.333,104.667,293.333,133
		c0,0,7-21-17.333-29.667c0,0-90.917-29.917-135.917-51.167c0,0-125.75-61.75-152.75-99.75c0,0-11.5-16.25,3-2
		c0,0,82,69.25,145.75,93.75c0,0,101.25,43.75,141,51.5c0,0,20,6,32.5-9.5v-2c0,0-209.25-57.5-333.75-163
		c0,0-111-94.833-149-165.167C130.376,96.94,124.142,89.798,123.876,96.94z"/>
	<path d="M603.876,491.94c0,0-3,14-12.667,18.667c0,0-6.333-15.333-16-11.333c0,0-14.667,1-12,25.667c0,0,3,15.667,24,15.667
		c0,0,25.333,7,36.667-32.667c0,0,13.333-62.667,29.333-81c0,0,6-10,11.333-8c0,0,3,19.667,24.333,9c0,0,21.333-17.667-1.333-39.667
		c0,0-28-13.667-51.333,16c0,0-10,14.667-12,20c0,0-7.333,16-25.333,20C598.876,444.273,609.543,454.273,603.876,491.94z"/>
	<path d="M643.876,455.273c0,0-12,24.667-1.333,31c0,0,45.667,3,57.667,0c0,0,19,0.333,20-40.333c0,0-9-7.667-20,0
		c0,0-3.667,6.667-3.667,10.667c0,0-4.333,8.593-11,8.463c0,0,10.208-11.463,8.458-21.213c0,0-9.875-10.5-22.375,0.75
		c0,0-3.125,16.625-13.75,20.25c0,0,2.375-5.875,4.375-8.125c0,0,6.25-7.25,2.625-14.5
		C664.876,442.231,656.6,431.45,643.876,455.273z"/>
	<path d="M715.876,485.106c0,0,12,12.5,25,4.167c0,0,0.833-0.5,0.667-2.667c0,0-18.333-2.5-18.333-25.167
		c0,0,1.167-17.667,22.167-19c0,0,25.667-2.833,25.5,29.333c0,0,2,22.333-22.333,32.333c0,0-21.5,6.5-33.5-12.667
		C715.043,491.44,712.207,482.124,715.876,485.106z"/>
</g>
<g id="Layer_7">
	<path d="M814.259,96.44c0,0,5,38.333-27.667,87.333c0,0-36.667,75-152,156.667c0,0-145.333,104.667-293.333,133
		c0,0-7-21,17.333-29.667c0,0,90.917-29.917,135.917-51.167c0,0,125.75-61.75,152.75-99.75c0,0,11.5-16.25-3-2
		c0,0-82,69.25-145.75,93.75c0,0-101.25,43.75-141,51.5c0,0-20,6-32.5-9.5v-2c0,0,209.25-57.5,333.75-163
		c0,0,111-94.833,149-165.167C807.759,96.44,813.994,89.299,814.259,96.44z"/>
	<path d="M334.259,491.44c0,0,3,14,12.667,18.667c0,0,6.333-15.333,16-11.333c0,0,14.667,1,12,25.667c0,0-3,15.667-24,15.667
		c0,0-25.333,7-36.667-32.667c0,0-13.333-62.667-29.333-81c0,0-6-10-11.333-8c0,0-3,19.667-24.333,9c0,0-21.333-17.667,1.333-39.667
		c0,0,28-13.667,51.333,16c0,0,10,14.667,12,20c0,0,7.333,16,25.333,20C339.259,443.774,328.592,453.774,334.259,491.44z"/>
	<path d="M294.259,454.774c0,0,12,24.667,1.333,31c0,0-45.667,3-57.667,0c0,0-19,0.333-20-40.333c0,0,9-7.667,20,0
		c0,0,3.667,6.667,3.667,10.667c0,0,4.333,8.593,11,8.463c0,0-10.208-11.463-8.458-21.213c0,0,9.875-10.5,22.375,0.75
		c0,0,3.125,16.625,13.75,20.25c0,0-2.375-5.875-4.375-8.125c0,0-6.25-7.25-2.625-14.5
		C273.259,441.732,281.536,430.95,294.259,454.774z"/>
	<path d="M222.259,484.607c0,0-12,12.5-25,4.167c0,0-0.833-0.5-0.667-2.667c0,0,18.333-2.5,18.333-25.167
		c0,0-1.167-17.667-22.167-19c0,0-25.667-2.833-25.5,29.333c0,0-2,22.333,22.333,32.333c0,0,21.5,6.5,33.5-12.667
		C223.092,490.94,225.928,481.624,222.259,484.607z"/>
</g>
<g id="Layer_5">
	<path fill="#0C0C0C" d="M382.543,246.606c0,0,8.417,23,7.708,31c0,0-4.042,22,2.292,27.667c0,0,23.056,18.667,26.361,22
		c0,0,12.306,13.333,14.972,14.667c0,0,10.667,2.667,17.333,0c0,0,24.667-0.963,29.333,1.185c0,0,18.667,2.815,24-3.185
		c0,0,17.667-20.667,29.333-29.333c0,0,8.333-2.667,5.667-11c0,0,3.333-29.667,7.667-37.667c0,0,6-21.897,4.667-26.948
		c0,0-1.667-6.948-11.333,0c0,0-14.333,10.615-14.667,32.948c0,0-2,24.333-5.667,27c0,0-8.667,10.333-15.667,10.333
		c0,0,3.083-7.417,1.833-12.167c0,0-11.5-4.875-15.125,3.5c0,0-1.875,7.875,1.25,10.125c0,0,0.375,1.75-0.125,2.375
		s-9.25,0.5-9.25,0.5s0.375-4,2.25-7.125c0,0,3.375-11.25-9-10c0,0-8.625-1-6.25,12.375c0,0,2.25,3.5,1.75,5l-10.25-0.125
		c0,0,0.25-3.875,2.5-6.75c0,0,3.625-7.75-1.875-10.75c0,0-13.375-3.5-13.25,6c0,0,0.375,5.125,2.625,8.5c0,0,0.5,2.375,0.25,2.75
		s-11.25-0.625-11.25-0.625s0.5-3.375,2.125-5.75c0,0,3.5-11.125-3.625-12c0,0-11-1.75-10.25,7.25c0,0,2,5.25,1.125,7.375
		c0,0-12.125-0.25-18.125-13.5c0,0-0.375-21.375-6.125-32.125c0,0-5.875-29.5-20.125-23.75
		C385.626,236.356,379.085,238.856,382.543,246.606z"/>
</g>
<g id="Layer_2">
	<path d="M419.876,26.606c0,0-38.333,10-54,43c0,0-4,9-4.333,14c0,0-4.667,16.333-7,19.333c0,0-8.667,57.333,4.667,104.667
		c0,0,10,26,23.667,20c0,0,12.667-4.333,14-5.333c0,0,12.667-4,17.667,10.333c0,0,0.333,24,13,29.667c0,0-7.333,8.667-6.667,15.667
		c0,0,3,6.333,10.833,1.667c0,0,2.167-2.167,0-14.833c0,0,6.167,0.833,7.333,0.5c0,0-0.5,3.5-2.167,5.167
		c0,0-4.167,11.667,2.167,12.667c0,0,9,3.333,12.833-3.5c0,0,0.667-5.667-2.833-11.167l0.333-2.667l9.167,0.667
		c0,0-6,12.792-1.333,17.48c0,0,9.667,3.02,13-1.146c0,0,2.333-6.5-3.667-16l11.833-0.667c0,0-7.5,11-1.833,17.833
		c0,0,11.5,4,13.5-4.333c0,0,0.167-7.833-4-13.333c0,0,12.5-0.333,13.333-1c0,0-7,19,4.667,17.333c0,0,11-0.667,7.833-9
		c0,0-4.5-10.833-4.5-12.167c0,0,14.167-13,17.333-20c0,0,1.333-20,17-18.667c0,0,10.833,2,12.5,3.667c0,0,14,4.833,21.167-12.667
		c0,0,8.167-17.167-4.5-21.333c0,0-14.75-3.083-12.25-20.333c0,0-0.25-21.25-2.75-26c0,0-1.75-4.75,2-6.5c0,0,3.75-3.25,4.5,5
		s0.75,8.25,0.75,8.25l-0.25,24.5c0,0,4,13.75,11,3c0,0,18.75-29.5,5.5-70.5c0,0-5-15.5-6.25-20.75c0,0-21.25-61.75-79-68.5
		C494.126,20.606,455.876,14.106,419.876,26.606z"/>
</g>
<g id="Layer_4">
	<path fill="#FFFFFF" d="M466.21,175.273c0,0,22.667,31.667,20.333,45.333c0,0,0,8.667-7.667,13c0,0-3.667,5-7-4l-5.667-9
		c0,0-3.667-9-8.333,3c0,0-3.639,10-10.319,2.667c0,0,1.986-13.948,4.986-21.141c0,0,3.333-22.859,7-27.193
		C459.543,177.94,462.932,170.456,466.21,175.273z"/>
</g>
<g id="Layer_3">
	<path fill="#FFFFFF" d="M424.626,138.856c0,0-16-1.75-20.125-1c0,0-9,1.625-12.25,7.75c0,0-4.5,11.625,0,30.25
		c0,0,1.5,12.75,13.375,19.75c0,0,6.5,3.125,13.5,0c0,0,18.375-9.875,26.375-23.25c0,0,4.625-14.25,0-23.125
		C445.501,149.231,442.626,142.356,424.626,138.856z"/>
	<path fill="#FFFFFF" d="M507.307,138.731c0,0,16-1.75,20.125-1c0,0,9,1.625,12.25,7.75c0,0,4.5,11.625,0,30.25
		c0,0-1.5,12.75-13.375,19.75c0,0-6.5,3.125-13.5,0c0,0-18.375-9.875-26.375-23.25c0,0-4.625-14.25,0-23.125
		C486.432,149.106,489.307,142.231,507.307,138.731z"/>
</g>
</svg>
